<svg width="18" height="15" viewBox="0 0 18 15" fill="none" xmlns="http://www.w3.org/2000/svg">
<path d="M15.9584 3.60001L12.6251 5.98335C12.1834 6.30001 11.5501 6.10835 11.3584 5.60001L9.78339 1.40001C9.51673 0.675012 8.49173 0.675012 8.22506 1.40001L6.64173 5.59168C6.45006 6.10835 5.82506 6.30001 5.38339 5.97501L2.05006 3.59168C1.38339 3.12501 0.500061 3.78335 0.775061 4.55835L4.24173 14.2667C4.35839 14.6 4.67506 14.8167 5.02506 14.8167H12.9667C13.3167 14.8167 13.6334 14.5917 13.7501 14.2667L17.2167 4.55835C17.5001 3.78335 16.6167 3.12501 15.9584 3.60001ZM11.0834 11.2917H6.91673C6.57506 11.2917 6.29173 11.0083 6.29173 10.6667C6.29173 10.325 6.57506 10.0417 6.91673 10.0417H11.0834C11.4251 10.0417 11.7084 10.325 11.7084 10.6667C11.7084 11.0083 11.4251 11.2917 11.0834 11.2917Z" fill="#0066FF"/>
</svg>
