<svg width="10" height="10" viewBox="0 0 10 10" fill="none" xmlns="http://www.w3.org/2000/svg">
<path d="M5.00004 0.833374C7.30004 0.833374 9.16671 2.70004 9.16671 5.00004C9.16671 7.30004 7.30004 9.16671 5.00004 9.16671C2.70004 9.16671 0.833374 7.30004 0.833374 5.00004C0.833374 2.70004 2.70004 0.833374 5.00004 0.833374ZM5.00004 1.66671C3.15837 1.66671 1.66671 3.15837 1.66671 5.00004C1.66671 6.84171 3.15837 8.33337 5.00004 8.33337C6.84171 8.33337 8.33337 6.84171 8.33337 5.00004C8.33337 3.15837 6.84171 1.66671 5.00004 1.66671ZM5.00004 2.91671C5.75837 2.91671 6.42212 3.32212 6.78671 3.92837L6.07254 4.35712C5.96015 4.16973 5.8006 4.01506 5.60979 3.90856C5.41898 3.80206 5.20359 3.74743 4.98509 3.75014C4.76659 3.75284 4.55261 3.81278 4.3645 3.92397C4.17639 4.03516 4.02071 4.19372 3.91299 4.38384C3.80527 4.57396 3.74927 4.789 3.75058 5.00752C3.75188 5.22603 3.81045 5.44038 3.92044 5.6292C4.03042 5.81803 4.18799 5.97471 4.37742 6.08365C4.56685 6.19258 4.78152 6.24995 5.00004 6.25004C5.21593 6.25018 5.42817 6.19437 5.61606 6.08805C5.80395 5.98172 5.96108 5.82852 6.07212 5.64337L6.78671 6.07171C6.55255 6.4628 6.19656 6.76628 5.77334 6.9356C5.35013 7.10493 4.88305 7.13074 4.44375 7.00909C4.00445 6.88744 3.61718 6.62505 3.34135 6.26214C3.06551 5.89924 2.91634 5.45587 2.91671 5.00004C2.91671 3.85004 3.85004 2.91671 5.00004 2.91671Z" fill="#818181"/>
</svg>
