<svg width="14" height="14" viewBox="0 0 14 14" fill="none" xmlns="http://www.w3.org/2000/svg">
<path d="M6.99967 0.333336C3.32634 0.333336 0.333008 3.32667 0.333008 7C0.333008 10.6733 3.32634 13.6667 6.99967 13.6667C10.673 13.6667 13.6663 10.6733 13.6663 7C13.6663 3.32667 10.673 0.333336 6.99967 0.333336ZM10.1863 5.46667L6.40634 9.24667C6.31301 9.34 6.18634 9.39334 6.05301 9.39334C5.91967 9.39334 5.79301 9.34 5.69967 9.24667L3.81301 7.36C3.61967 7.16667 3.61967 6.84667 3.81301 6.65334C4.00634 6.46 4.32634 6.46 4.51967 6.65334L6.05301 8.18667L9.47967 4.76C9.67301 4.56667 9.99301 4.56667 10.1863 4.76C10.3797 4.95334 10.3797 5.26667 10.1863 5.46667Z" fill="#00AE5B"/>
</svg>
