<svg width="18" height="15" viewBox="0 0 18 15" fill="none" xmlns="http://www.w3.org/2000/svg">
<path d="M15.9585 3.6L12.6252 5.98333C12.1835 6.3 11.5502 6.10833 11.3585 5.6L9.78352 1.4C9.51685 0.674997 8.49185 0.674997 8.22518 1.4L6.64185 5.59166C6.45018 6.10833 5.82518 6.3 5.38352 5.975L2.05018 3.59166C1.38352 3.125 0.500183 3.78333 0.775183 4.55833L4.24185 14.2667C4.35852 14.6 4.67518 14.8167 5.02518 14.8167H12.9669C13.3169 14.8167 13.6335 14.5917 13.7502 14.2667L17.2169 4.55833C17.5002 3.78333 16.6169 3.125 15.9585 3.6ZM11.0835 11.2917H6.91685C6.57518 11.2917 6.29185 11.0083 6.29185 10.6667C6.29185 10.325 6.57518 10.0417 6.91685 10.0417H11.0835C11.4252 10.0417 11.7085 10.325 11.7085 10.6667C11.7085 11.0083 11.4252 11.2917 11.0835 11.2917Z" fill="white"/>
</svg>
