<svg width="18" height="18" viewBox="0 0 18 18" fill="none" xmlns="http://www.w3.org/2000/svg">
<path d="M17.3167 8.50829C17.0334 3.67496 12.6417 -0.0500318 7.58341 0.783302C4.10008 1.3583 1.30841 4.18328 0.766748 7.66662C0.450081 9.68328 0.866766 11.5916 1.7751 13.1666L1.03342 15.925C0.866754 16.55 1.44174 17.1166 2.0584 16.9416L4.77508 16.1916C6.00841 16.9166 7.45008 17.3333 8.99174 17.3333C13.6917 17.3333 17.5917 13.1916 17.3167 8.50829ZM13.0668 12.1C12.9918 12.25 12.9001 12.3916 12.7834 12.525C12.5751 12.75 12.3501 12.9166 12.1001 13.0166C11.8501 13.125 11.5751 13.175 11.2834 13.175C10.8584 13.175 10.4001 13.075 9.92507 12.8666C9.44174 12.6583 8.96676 12.3833 8.49176 12.0416C8.00843 11.6916 7.55842 11.3 7.12508 10.875C6.69175 10.4416 6.3084 9.98328 5.9584 9.50828C5.61673 9.03328 5.34175 8.55828 5.14175 8.08328C4.94175 7.60828 4.84176 7.14996 4.84176 6.71663C4.84176 6.4333 4.89175 6.1583 4.99175 5.9083C5.09175 5.64996 5.2501 5.41663 5.4751 5.2083C5.74177 4.94163 6.03342 4.81663 6.34175 4.81663C6.45842 4.81663 6.57506 4.84163 6.68339 4.89163C6.79173 4.94163 6.89175 5.01663 6.96675 5.12496L7.93339 6.49161C8.00839 6.59995 8.06674 6.69162 8.10007 6.78329C8.14174 6.87495 8.15841 6.95828 8.15841 7.04162C8.15841 7.14162 8.12509 7.24163 8.06676 7.34163C8.00842 7.44163 7.9334 7.54162 7.8334 7.64162L7.51673 7.97495C7.46673 8.02495 7.4501 8.07496 7.4501 8.14162C7.4501 8.17496 7.4584 8.20829 7.46673 8.24162C7.4834 8.27495 7.49176 8.29996 7.5001 8.32496C7.5751 8.46662 7.7084 8.64161 7.89174 8.85828C8.0834 9.07494 8.28344 9.29995 8.50011 9.51662C8.72511 9.74162 8.94176 9.94161 9.16676 10.1333C9.38343 10.3166 9.56673 10.4416 9.7084 10.5166C9.7334 10.525 9.75842 10.5416 9.78342 10.5499C9.81675 10.5666 9.85009 10.5666 9.89176 10.5666C9.96676 10.5666 10.0168 10.5416 10.0668 10.4916L10.3834 10.175C10.4917 10.0666 10.5918 9.99163 10.6834 9.94163C10.7834 9.88329 10.8751 9.84995 10.9834 9.84995C11.0668 9.84995 11.1501 9.86662 11.2418 9.90829C11.3334 9.94995 11.4334 9.99996 11.5334 10.075L12.9168 11.0583C13.0251 11.1333 13.1001 11.225 13.1501 11.325C13.1917 11.4333 13.2167 11.5333 13.2167 11.65C13.1667 11.7916 13.1334 11.95 13.0668 12.1Z" fill="#0066FF"/>
</svg>
