<svg width="23" height="22" viewBox="0 0 23 22" fill="none" xmlns="http://www.w3.org/2000/svg">
<path d="M11.5003 21.9821C17.5514 21.9821 22.4824 17.0512 22.4824 11C22.4824 4.94884 17.5514 0.01786 11.5003 0.0178595C5.44912 0.0178589 0.518137 4.94884 0.518136 11C0.518136 17.0512 5.44912 21.9821 11.5003 21.9821ZM9.53448 7.70536C9.21599 7.38688 9.21599 6.85973 9.53448 6.54125C9.69921 6.37652 9.90787 6.29964 10.1165 6.29964C10.3252 6.29964 10.5339 6.37652 10.6986 6.54125L14.5753 10.4179C14.8938 10.7364 14.8938 11.2636 14.5753 11.5821L10.6986 15.4588C10.3801 15.7772 9.85296 15.7772 9.53447 15.4588C9.21599 15.1403 9.21599 14.6131 9.53448 14.2946L12.8291 11L9.53448 7.70536Z" fill="#292D32"/>
</svg>
