<svg width="23" height="22" viewBox="0 0 23 22" fill="none" xmlns="http://www.w3.org/2000/svg">
<path d="M11.4997 0.0178528C5.44856 0.0178528 0.517578 4.94883 0.517578 11C0.517578 17.0512 5.44856 21.9821 11.4997 21.9821C17.5509 21.9821 22.4819 17.0512 22.4819 11C22.4819 4.94883 17.5509 0.0178528 11.4997 0.0178528ZM13.4655 14.2946C13.784 14.6131 13.784 15.1403 13.4655 15.4587C13.3008 15.6235 13.0921 15.7004 12.8835 15.7004C12.6748 15.7004 12.4662 15.6235 12.3014 15.4587L8.42472 11.5821C8.10624 11.2636 8.10624 10.7364 8.42472 10.4179L12.3014 6.54125C12.6199 6.22276 13.147 6.22276 13.4655 6.54125C13.784 6.85973 13.784 7.38687 13.4655 7.70535L10.1709 11L13.4655 14.2946Z" fill="#7B7C7D"/>
</svg>
