<svg width="18" height="18" viewBox="0 0 18 18" fill="none" xmlns="http://www.w3.org/2000/svg">
<path d="M17.3334 12.4916C17.3334 15.525 15.5251 17.3333 12.4917 17.3333H11.5001C11.0417 17.3333 10.6667 16.9583 10.6667 16.5V11.6916C10.6667 11.4666 10.8501 11.275 11.0751 11.275L12.5417 11.25C12.6584 11.2416 12.7584 11.1583 12.7834 11.0416L13.0751 9.44997C13.1001 9.29997 12.9834 9.15829 12.8251 9.15829L11.0501 9.18329C10.8167 9.18329 10.6334 8.99997 10.6251 8.77497L10.5918 6.73329C10.5918 6.59996 10.7001 6.4833 10.8417 6.4833L12.8417 6.44996C12.9834 6.44996 13.0918 6.34164 13.0918 6.19997L13.0584 4.19995C13.0584 4.05828 12.9501 3.94996 12.8084 3.94996L10.5584 3.9833C9.17508 4.0083 8.07509 5.14162 8.10009 6.52496L8.14175 8.81662C8.15008 9.04996 7.96676 9.2333 7.73342 9.24163L6.73341 9.25829C6.59175 9.25829 6.48342 9.36661 6.48342 9.50828L6.50842 11.0916C6.50842 11.2333 6.61675 11.3416 6.75841 11.3416L7.75842 11.325C7.99176 11.325 8.17507 11.5083 8.18341 11.7333L8.2584 16.4833C8.26674 16.95 7.89174 17.3333 7.42507 17.3333H5.50841C2.47508 17.3333 0.666748 15.525 0.666748 12.4833V5.50829C0.666748 2.47496 2.47508 0.666626 5.50841 0.666626H12.4917C15.5251 0.666626 17.3334 2.47496 17.3334 5.50829V12.4916Z" fill="#0066FF"/>
</svg>
