<svg width="18" height="18" viewBox="0 0 18 18" fill="none" xmlns="http://www.w3.org/2000/svg">
<path d="M13.0476 0.904785H4.9524C2.71697 0.904785 0.904785 2.71697 0.904785 4.9524V13.0476C0.904785 15.2831 2.71697 17.0953 4.9524 17.0953H13.0476C15.2831 17.0953 17.0953 15.2831 17.0953 13.0476V4.9524C17.0953 2.71697 15.2831 0.904785 13.0476 0.904785ZM14.2232 12.0881L12.7114 12.1094C12.7114 12.1094 12.3866 12.1736 11.9593 11.8803C11.394 11.4923 10.8606 10.484 10.4454 10.6156C10.0237 10.7492 10.0371 11.6562 10.0371 11.6562C10.0371 11.6562 10.0407 11.8576 9.94447 11.9607C9.84034 12.0732 9.63604 12.1032 9.63604 12.1032H8.95961C8.95961 12.1032 7.46692 12.1855 6.15178 10.8175C4.71835 9.32525 3.45199 6.36152 3.45199 6.36152C3.45199 6.36152 3.3792 6.16591 3.45833 6.07174C3.54751 5.96657 3.79023 5.95844 3.79023 5.95844L5.40736 5.94819C5.40736 5.94819 5.56022 5.97328 5.66924 6.05322C5.75906 6.119 5.80929 6.24177 5.80929 6.24177C5.80929 6.24177 6.07103 6.90285 6.41697 7.50008C7.09265 8.66727 7.40732 8.92251 7.63736 8.79747C7.97196 8.61493 7.87155 7.14817 7.87155 7.14817C7.87155 7.14817 7.87795 6.61503 7.7032 6.37828C7.56801 6.19438 7.31331 6.14068 7.20086 6.12581C7.10955 6.11387 7.25891 5.90241 7.45279 5.80767C7.74344 5.66563 8.25779 5.65709 8.86487 5.66354C9.3381 5.66846 9.47386 5.69811 9.65931 5.7427C10.2168 5.87698 10.0279 6.39653 10.0279 7.64292C10.0279 8.04161 9.95563 8.60369 10.2436 8.78958C10.3675 8.86955 10.6709 8.80162 11.4287 7.51579C11.7881 6.90622 12.0576 6.18946 12.0576 6.18946C12.0576 6.18946 12.1163 6.06216 12.2077 6.00711C12.3017 5.95125 12.4276 5.96832 12.4276 5.96832L14.1285 5.95834C14.1285 5.95834 14.6399 5.89749 14.7227 6.12793C14.8098 6.36971 14.5317 6.93533 13.8362 7.86136C12.6943 9.38202 12.5671 9.23924 13.515 10.1187C14.4206 10.9586 14.6088 11.3673 14.6392 11.4181C15.0141 12.0393 14.2232 12.0881 14.2232 12.0881Z" fill="#0066FF"/>
</svg>
