<svg width="20" height="20" viewBox="0 0 20 20" fill="none" xmlns="http://www.w3.org/2000/svg">
<path d="M10 20C4.477 20 0 15.523 0 10C0 4.477 4.477 0 10 0C15.523 0 20 4.477 20 10C20 15.523 15.523 20 10 20ZM18 10C17.9997 8.2374 17.4173 6.52424 16.3433 5.12666C15.2693 3.72908 13.7637 2.72532 12.0606 2.27131C10.3575 1.8173 8.55211 1.93847 6.92493 2.61598C5.29774 3.2935 3.93986 4.48943 3.06222 6.018C2.18459 7.54656 1.83633 9.32218 2.07156 11.069C2.30679 12.8158 3.11233 14.4361 4.36305 15.6781C5.61376 16.92 7.23963 17.7142 8.98807 17.9371C10.7365 18.1601 12.5096 17.7993 14.032 16.911L13.024 15.184C11.8823 15.8502 10.5524 16.1208 9.24114 15.9536C7.92984 15.7864 6.71046 15.1908 5.77242 14.2594C4.83437 13.328 4.23019 12.1129 4.05371 10.8028C3.87723 9.4927 4.13834 8.16101 4.79648 7.01457C5.45462 5.86814 6.47294 4.97114 7.69326 4.46292C8.91358 3.9547 10.2676 3.86371 11.5449 4.20409C12.8223 4.54446 13.9514 5.29715 14.7571 6.34522C15.5627 7.3933 15.9996 8.67808 16 10V11C16 11.2652 15.8946 11.5196 15.7071 11.7071C15.5196 11.8946 15.2652 12 15 12C14.7348 12 14.4804 11.8946 14.2929 11.7071C14.1054 11.5196 14 11.2652 14 11V7H12.646C12.0658 6.48826 11.3497 6.15573 10.5844 6.0427C9.81915 5.92966 9.03749 6.04097 8.33417 6.36314C7.63084 6.68531 7.03603 7.20452 6.62178 7.85786C6.20754 8.51121 5.99164 9.27066 6.00023 10.0442C6.00883 10.8178 6.24155 11.5722 6.67021 12.2162C7.09887 12.8602 7.70507 13.366 8.41538 13.6725C9.12569 13.979 9.90963 14.0729 10.6722 13.9429C11.4348 13.8129 12.1434 13.4645 12.712 12.94C13.1093 13.4085 13.6409 13.7437 14.2348 13.9004C14.8288 14.0571 15.4566 14.0276 16.0333 13.8161C16.61 13.6045 17.1078 13.221 17.4595 12.7174C17.8113 12.2137 17.9999 11.6143 18 11V10ZM10 8C10.5304 8 11.0391 8.21071 11.4142 8.58579C11.7893 8.96086 12 9.46957 12 10C12 10.5304 11.7893 11.0391 11.4142 11.4142C11.0391 11.7893 10.5304 12 10 12C9.46957 12 8.96086 11.7893 8.58579 11.4142C8.21071 11.0391 8 10.5304 8 10C8 9.46957 8.21071 8.96086 8.58579 8.58579C8.96086 8.21071 9.46957 8 10 8Z" fill="#292D32"/>
</svg>
