<svg width="18" height="18" viewBox="0 0 18 18" fill="none" xmlns="http://www.w3.org/2000/svg">
<path d="M12.4917 0.666626H5.50841C2.47508 0.666626 0.666748 2.47496 0.666748 5.50829V12.4833C0.666748 15.525 2.47508 17.3333 5.50841 17.3333H12.4834C15.5167 17.3333 17.3251 15.525 17.3251 12.4916V5.50829C17.3334 2.47496 15.5251 0.666626 12.4917 0.666626ZM9.00008 12.2333C7.21675 12.2333 5.76675 10.7833 5.76675 8.99996C5.76675 7.21663 7.21675 5.76663 9.00008 5.76663C10.7834 5.76663 12.2334 7.21663 12.2334 8.99996C12.2334 10.7833 10.7834 12.2333 9.00008 12.2333ZM13.9334 4.73329C13.8917 4.83329 13.8334 4.92496 13.7584 5.00829C13.6751 5.08329 13.5834 5.14163 13.4834 5.18329C13.3834 5.22496 13.2751 5.24996 13.1667 5.24996C12.9417 5.24996 12.7334 5.16663 12.5751 5.00829C12.5001 4.92496 12.4417 4.83329 12.4001 4.73329C12.3584 4.63329 12.3334 4.52496 12.3334 4.41663C12.3334 4.30829 12.3584 4.19996 12.4001 4.09996C12.4417 3.99163 12.5001 3.90829 12.5751 3.82496C12.7667 3.63329 13.0584 3.54163 13.3251 3.59996C13.3834 3.60829 13.4334 3.62496 13.4834 3.64996C13.5334 3.66663 13.5834 3.69163 13.6334 3.72496C13.6751 3.74996 13.7167 3.79163 13.7584 3.82496C13.8334 3.90829 13.8917 3.99163 13.9334 4.09996C13.9751 4.19996 14.0001 4.30829 14.0001 4.41663C14.0001 4.52496 13.9751 4.63329 13.9334 4.73329Z" fill="#0066FF"/>
</svg>
